# xmcd
#
# Track frame offsets:
#	150
#	11619
#	23537
#	36124
#	43897
#	53993
#	65350
#	76979
#	91600
#
# Disc length: 1313 seconds
#
# Revision: 0
# Processed by: cddbd v1.5PL3 Copyright (c) Steve Scherf et al.
# Submitted via: dBpowerAMP V4.0
#
DISCID=62051f09
DTITLE=Emma Christie - Gut Feeling
DYEAR=2004
DGENRE=Country
TTITLE0=I'll Be Yours Tonight
TTITLE1=The Untouchables
TTITLE2=Over Your Shoulder
TTITLE3=Purgatory
TTITLE4=Love and Life in General
TTITLE5=Rosa Flores
TTITLE6=Tomorrow
TTITLE7=Go Ahead Punk (Make My Day)
TTITLE8=untitled
EXTD=
EXTT0=
EXTT1=
EXTT2=
EXTT3=
EXTT4=
EXTT5=
EXTT6=
EXTT7=
EXTT8=
PLAYORDER=
